<?xml version="1.0" standalone="no"?>
<!DOCTYPE svg PUBLIC "-//W3C//DTD SVG 20010904//EN"
 "http://www.w3.org/TR/2001/REC-SVG-20010904/DTD/svg10.dtd">
<svg version="1.0" xmlns="http://www.w3.org/2000/svg"
 width="512.000000pt" height="512.000000pt" viewBox="0 0 512.000000 512.000000"
 preserveAspectRatio="xMidYMid meet">

<g transform="translate(0.000000,512.000000) scale(0.100000,-0.100000)"
fill="#000000" stroke="none">
<path d="M3113 5109 c-664 -77 -1228 -507 -1479 -1127 -45 -111 -99 -320 -114
-444 -18 -144 -8 -435 19 -572 43 -213 143 -461 254 -631 l46 -70 -119 -120
-120 -120 -50 50 c-43 43 -56 50 -90 50 -40 0 -47 -7 -705 -665 -713 -713
-708 -707 -740 -841 -85 -361 240 -689 599 -605 139 33 129 24 846 741 658
658 665 665 665 705 0 34 -7 47 -50 90 l-50 50 120 120 120 119 70 -46 c170
-111 418 -211 631 -254 137 -27 428 -37 572 -19 449 56 863 281 1156 631 494
587 563 1431 172 2083 -186 310 -468 566 -789 716 -289 136 -652 195 -964 159z
m362 -199 c368 -41 684 -187 946 -437 516 -493 645 -1257 319 -1891 -243 -474
-698 -794 -1225 -863 -128 -17 -403 -6 -527 20 -487 105 -889 415 -1108 856
-118 238 -159 400 -167 660 -6 190 4 294 43 449 176 703 812 1205 1539 1215
50 0 131 -4 180 -9z m-1472 -3052 c-59 -60 -112 -108 -118 -108 -13 0 -135
122 -135 135 0 5 48 58 107 117 l107 108 73 -73 73 -72 -107 -107z m-328 -188
l210 -210 -143 -142 -142 -143 -212 212 -213 213 140 140 c77 77 142 140 145
140 3 0 100 -95 215 -210z m-602 -1023 c-440 -440 -443 -442 -573 -442 -89 0
-150 25 -213 88 -57 57 -81 117 -82 202 0 134 -8 124 434 568 l396 397 212
-212 213 -213 -387 -388z"/>
<path d="M3150 4709 c-176 -21 -392 -93 -535 -176 -250 -146 -455 -369 -574
-623 -45 -97 -83 -211 -107 -320 -22 -100 -30 -355 -15 -461 85 -602 523
-1068 1121 -1196 121 -26 430 -25 550 1 283 61 511 186 715 390 209 209 333
444 391 741 24 121 24 365 0 495 -103 568 -541 1015 -1108 1130 -117 24 -327
33 -438 19z m392 -214 c234 -48 429 -150 597 -310 406 -387 496 -998 216
-1475 -356 -608 -1139 -784 -1727 -389 -90 60 -257 230 -317 324 -235 360
-267 800 -87 1181 177 374 535 632 946 683 96 12 278 5 372 -14z"/>
</g>
</svg>
