<?xml version="1.0" standalone="no"?>
<!DOCTYPE svg PUBLIC "-//W3C//DTD SVG 20010904//EN"
 "http://www.w3.org/TR/2001/REC-SVG-20010904/DTD/svg10.dtd">
<svg version="1.0" xmlns="http://www.w3.org/2000/svg"
 width="512.000000pt" height="512.000000pt" viewBox="0 0 512.000000 512.000000"
 preserveAspectRatio="xMidYMid meet">

<g transform="translate(0.000000,512.000000) scale(0.100000,-0.100000)"
fill="#000000" stroke="none">
<path d="M2285 4675 c-708 -93 -1326 -538 -1640 -1180 -289 -592 -289 -1278 0
-1870 323 -661 956 -1104 1694 -1185 170 -19 442 -8 614 24 755 143 1380 685
1626 1413 149 439 149 927 0 1366 -265 782 -964 1345 -1784 1437 -122 13 -387
11 -510 -5z m414 -415 c843 -75 1493 -730 1561 -1575 50 -606 -252 -1217 -765
-1551 -579 -376 -1314 -372 -1885 12 -576 386 -861 1085 -720 1761 138 662
662 1185 1326 1324 170 35 313 44 483 29z"/>
<path d="M2428 3830 c-381 -65 -665 -371 -704 -759 l-7 -71 215 0 215 0 6 56
c13 128 109 257 235 317 62 30 75 32 172 32 97 0 110 -2 172 -32 138 -65 227
-195 236 -343 7 -130 -34 -192 -253 -375 -196 -163 -269 -253 -327 -400 -28
-71 -32 -94 -36 -207 l-4 -128 211 0 211 0 0 73 c0 62 5 83 30 134 32 65 69
102 245 250 204 171 306 320 340 497 19 99 19 161 0 271 -52 296 -267 549
-548 646 -135 46 -282 60 -409 39z"/>
<path d="M2350 1495 l0 -215 210 0 210 0 0 215 0 215 -210 0 -210 0 0 -215z"/>
</g>
</svg>
