<?xml version="1.0" standalone="no"?>
<!DOCTYPE svg PUBLIC "-//W3C//DTD SVG 20010904//EN"
 "http://www.w3.org/TR/2001/REC-SVG-20010904/DTD/svg10.dtd">
<svg version="1.0" xmlns="http://www.w3.org/2000/svg"
 width="60.000000pt" height="60.000000pt" viewBox="0 0 60.000000 60.000000"
 preserveAspectRatio="xMidYMid meet">

<g transform="translate(0.000000,60.000000) scale(0.100000,-0.100000)"
fill="#000000" stroke="none">
<path d="M248 495 c-15 -9 -31 -30 -38 -50 -11 -33 -14 -35 -56 -35 l-44 0 0
-165 0 -165 185 0 185 0 0 165 0 165 -44 0 c-42 0 -45 2 -56 35 -12 36 -52 65
-87 65 -10 -1 -30 -7 -45 -15z m92 -44 c18 -35 12 -41 -45 -41 -57 0 -63 6
-45 41 7 13 21 19 45 19 24 0 38 -6 45 -19z m110 -206 l0 -125 -150 0 -150 0
0 125 0 125 150 0 150 0 0 -125z"/>
</g>
</svg>
