<?xml version="1.0" standalone="no"?>
<!DOCTYPE svg PUBLIC "-//W3C//DTD SVG 20010904//EN"
 "http://www.w3.org/TR/2001/REC-SVG-20010904/DTD/svg10.dtd">
<svg version="1.0" xmlns="http://www.w3.org/2000/svg"
 width="60.000000pt" height="60.000000pt" viewBox="0 0 60.000000 60.000000"
 preserveAspectRatio="xMidYMid meet">

<g transform="translate(0.000000,60.000000) scale(0.100000,-0.100000)"
fill="#000000" stroke="none">
<path d="M224 486 c-39 -39 -45 -80 -17 -126 41 -70 145 -66 182 7 21 42 13
83 -23 119 -47 47 -95 47 -142 0z m118 -23 c22 -20 23 -70 1 -95 -20 -22 -70
-23 -95 -1 -26 23 -24 78 4 97 29 21 67 20 90 -1z"/>
<path d="M164 246 c-37 -16 -67 -73 -62 -119 5 -48 32 -42 36 8 2 23 12 49 24
63 20 20 30 22 132 22 133 -1 148 -8 156 -78 6 -56 33 -67 38 -15 5 48 -25
103 -64 119 -44 18 -218 18 -260 0z"/>
</g>
</svg>
