<?xml version="1.0" standalone="no"?>
<!DOCTYPE svg PUBLIC "-//W3C//DTD SVG 20010904//EN"
 "http://www.w3.org/TR/2001/REC-SVG-20010904/DTD/svg10.dtd">
<svg version="1.0" xmlns="http://www.w3.org/2000/svg"
 width="60.000000pt" height="60.000000pt" viewBox="0 0 60.000000 60.000000"
 preserveAspectRatio="xMidYMid meet">

<g transform="translate(0.000000,60.000000) scale(0.100000,-0.100000)"
fill="#000000" stroke="none">
<path d="M221 468 c-96 -50 -134 -148 -93 -240 49 -112 198 -145 289 -65 44
39 63 82 63 142 0 134 -143 224 -259 163z m161 -44 c67 -50 83 -145 34 -208
-27 -36 -81 -66 -119 -66 -32 0 -100 37 -121 67 -11 15 -21 48 -23 77 -5 60
18 104 69 137 41 25 122 22 160 -7z"/>
<path d="M246 368 c-9 -12 -16 -26 -16 -30 0 -14 38 -8 44 7 3 8 12 15 21 15
26 0 29 -29 6 -54 -24 -26 -28 -66 -7 -66 8 0 22 12 30 28 40 73 40 71 28 97
-16 34 -83 36 -106 3z"/>
<path d="M287 224 c-14 -14 -7 -35 11 -32 9 2 17 10 17 17 0 16 -18 25 -28 15z"/>
</g>
</svg>
