<?xml version="1.0" standalone="no"?>
<!DOCTYPE svg PUBLIC "-//W3C//DTD SVG 20010904//EN"
 "http://www.w3.org/TR/2001/REC-SVG-20010904/DTD/svg10.dtd">
<svg version="1.0" xmlns="http://www.w3.org/2000/svg"
 width="200.000000pt" height="50.000000pt" viewBox="0 0 200.000000 50.000000"
 preserveAspectRatio="xMidYMid meet">

<g transform="translate(0.000000,50.000000) scale(0.100000,-0.100000)"
fill="#000000" stroke="none">
<path d="M20 246 l0 -206 36 0 37 0 -5 145 c-3 80 -3 144 -1 142 3 -4 21 -63
69 -235 13 -48 17 -52 44 -52 27 0 31 4 44 52 47 168 66 231 69 234 2 2 1 -62
-1 -141 l-5 -145 37 0 36 0 0 205 0 205 -50 0 -49 0 -20 -67 c-11 -38 -28 -98
-37 -135 -10 -38 -21 -68 -24 -68 -3 0 -21 60 -41 133 l-36 132 -51 3 -52 3 0
-205z"/>
<path d="M420 245 l0 -205 95 0 95 0 0 30 c0 30 -1 30 -55 30 l-55 0 0 60 0
60 50 0 c49 0 50 1 50 30 0 29 -1 30 -50 30 l-50 0 0 55 0 55 55 0 c54 0 55 0
55 30 l0 30 -95 0 -95 0 0 -205z"/>
<path d="M640 245 l0 -205 80 0 c73 0 83 3 105 25 24 24 25 28 25 180 0 152
-1 156 -25 180 -22 22 -32 25 -105 25 l-80 0 0 -205z m135 6 c0 -112 -3 -135
-16 -144 -9 -6 -24 -7 -33 -4 -14 5 -16 26 -16 140 0 74 3 137 7 141 4 4 19 6
33 4 l25 -3 0 -134z"/>
<path d="M890 245 l0 -205 35 0 35 0 0 85 0 85 50 0 50 0 0 35 0 35 -50 0 -50
0 0 55 0 55 60 0 60 0 0 30 0 30 -95 0 -95 0 0 -205z"/>
<path d="M1100 245 l0 -205 95 0 95 0 0 30 c0 28 -1 29 -56 32 l-57 3 0 55 0
55 52 3 c49 3 51 4 51 33 0 28 -1 29 -49 29 l-49 0 -4 51 c-1 28 -1 53 1 55 2
2 28 4 58 4 52 0 53 0 53 30 l0 30 -95 0 -95 0 0 -205z"/>
<path d="M1320 245 l0 -205 35 0 35 0 0 86 0 85 28 -3 c25 -3 27 -7 30 -53 1
-27 4 -65 7 -82 5 -30 9 -33 42 -33 l36 0 -6 80 c-3 45 -12 91 -20 103 -13 20
-13 25 4 46 35 43 18 158 -26 175 -9 3 -50 6 -91 6 l-74 0 0 -205z m128 133
c7 -7 12 -28 12 -48 0 -42 -14 -60 -47 -60 -21 0 -23 4 -23 60 0 56 2 60 23
60 13 0 28 -5 35 -12z"/>
<path d="M1560 245 l0 -205 40 0 40 0 0 85 0 85 40 0 c30 0 47 7 65 25 22 21
25 33 25 95 0 62 -3 74 -25 95 -22 22 -32 25 -105 25 l-80 0 0 -205z m135 85
c0 -53 -1 -55 -27 -58 -28 -3 -28 -3 -28 58 0 61 0 61 28 58 26 -3 27 -5 27
-58z"/>
<path d="M1802 273 c-19 -98 -36 -190 -39 -205 -5 -26 -3 -28 31 -28 34 0 36
2 42 40 6 39 8 40 45 40 35 0 39 -3 39 -24 0 -44 10 -56 47 -56 34 0 34 0 27
38 -4 20 -21 111 -38 202 l-31 165 -45 3 -45 3 -33 -178z m88 45 c0 -13 3 -47
6 -75 7 -51 6 -53 -17 -53 l-25 0 10 75 c5 41 13 75 18 75 4 0 8 -10 8 -22z"/>
</g>
</svg>
